<svg width="200" height="200" viewBox="300 300 600 280" fill="none" xmlns="http://www.w3.org/2000/svg">
<path d="M405 591.5C476.5 634 542.366 620.116 599.5 572C580 586 544.5 586.5 526.5 574.5C545.824 573.393 556.406 571.357 574 560.5C536 569 508 559 498 541C518.709 544.042 541 543 550 536.5C510.5 540.5 473.5 522.5 457 489C478.451 494.637 491.262 497.13 516 500C453 474 439 450.5 434 406C454.159 431.952 469.096 440.496 498 452C434 409.5 423.878 359.398 432.5 306C457 387.5 502.225 445.361 590 524.5L612.5 502.5C616 499.5 626 508.604 623.5 511C611.5 522.5 634 539 651.5 553C582.5 596.5 556 704 482 698.5C496.861 692.147 504.323 687.681 516 678C489 694 468.491 690.553 445 672C461.724 677.51 471.707 675.591 490.5 664C462.5 673.5 433 654.5 416 635C434.456 641.872 445.27 644.343 466.5 643C436 636.5 418.415 620.637 405 591.5Z" fill="#1C1C1C"/>
<path d="M718.5 498.5C692 600 644.007 635.477 570.5 650.5C609.5 659.5 668 652.256 706.5 597.5C729 565.5 724 491 795 474.5C778 475.5 760.5 442.5 727 442.5C695 442.5 693 476.5 684 480.5C692.941 478.332 697.864 476.561 706.5 472.5C702.537 479.421 692.159 492.074 691.5 492.5C699.948 487.502 704.701 484.758 713.5 481C708.45 496.043 703.347 503.486 692.5 516C703.129 508.029 708.998 503.778 718.5 498.5Z" fill="#1C1C1C"/>
<path d="M693 417.5C693 438.5 690 451 678.5 463C678.5 406.5 627 395 627 323C627 269.5 648.5 229.5 687 199C668 235.5 656.5 259.5 656.5 298C656.5 346 691 379 693 417.5Z" fill="#1C1C1C"/>
<path d="M671.5 451.5C675.5 412 587 387.5 624 271.5C608.734 300.392 600.011 316.426 603.5 364C600.415 353.337 599.24 347.334 600 336.5C589.5 355 590 377 600 396C633.835 412.696 652.644 422.192 671.5 451.5Z" fill="#1C1C1C"/>
<path d="M581 394C517 342 466 259.5 477.5 153C449 181 439.571 208.274 437.5 251.5C437.5 331.5 650.5 485.5 640 489.5C667.322 512.421 673.858 524.771 681.681 545.331C695.296 455.946 650.298 435.864 581 394Z" fill="#1C1C1C"/>
<path d="M562.666 448.105L571.154 438.448L572.504 439.634L564.016 449.291L562.666 448.105ZM567.122 452.022L575.692 442.272L577.005 443.426L568.435 453.176L567.122 452.022ZM571.449 456.087L580.067 446.282L581.417 447.469L572.799 457.274L571.449 456.087ZM561.9 448.976L563.138 447.567L568.834 452.573C569.635 453.278 570.454 454.074 571.29 454.962C572.137 455.838 572.921 456.812 573.64 457.883C574.348 458.942 574.916 460.099 575.344 461.352C575.783 462.592 575.995 463.917 575.98 465.327C575.827 465.302 575.623 465.298 575.368 465.315C575.123 465.319 574.88 465.335 574.637 465.363C574.407 465.401 574.212 465.449 574.052 465.506C574.049 464.167 573.856 462.945 573.471 461.841C573.086 460.714 572.572 459.682 571.931 458.746C571.301 457.797 570.606 456.935 569.846 456.158C569.086 455.357 568.335 454.632 567.596 453.982L561.9 448.976ZM570.617 439.059L571.904 437.595L585.884 449.883C586.377 450.317 586.688 450.721 586.816 451.097C586.945 451.473 586.918 451.888 586.738 452.342C586.546 452.809 586.18 453.375 585.64 454.039C585.112 454.714 584.414 455.546 583.545 456.534C583.375 456.429 583.171 456.338 582.934 456.26C582.707 456.17 582.463 456.087 582.202 456.011C581.964 455.933 581.751 455.878 581.562 455.843C582.031 455.335 582.478 454.852 582.903 454.393C583.326 453.911 583.69 453.497 583.994 453.151C584.297 452.782 584.508 452.529 584.628 452.393C584.811 452.16 584.898 451.974 584.889 451.835C584.879 451.672 584.775 451.505 584.578 451.331L570.617 439.059Z" fill="#AF282F"/>
<path d="M595.075 469.495L596.346 468.05C597.341 469.056 598.261 470.061 599.104 471.065C599.948 472.069 600.661 473.123 601.243 474.226C601.825 475.329 602.214 476.515 602.41 477.783C602.618 479.038 602.577 480.415 602.287 481.913C602.009 483.398 601.42 485.038 600.52 486.832C600.282 486.755 599.976 486.693 599.6 486.648C599.248 486.601 598.933 486.587 598.655 486.605C599.537 484.906 600.121 483.371 600.407 482.001C600.691 480.609 600.751 479.347 600.587 478.217C600.421 477.063 600.068 475.997 599.529 475.02C599.001 474.03 598.353 473.088 597.586 472.195C596.807 471.291 595.97 470.391 595.075 469.495ZM587.293 467.386L588.873 466.147C589.279 467.226 589.628 468.409 589.919 469.694C590.208 470.956 590.409 472.293 590.522 473.707C590.622 475.109 590.591 476.561 590.43 478.062C590.277 478.037 590.085 478.032 589.853 478.047C589.62 478.039 589.393 478.048 589.173 478.074C588.942 478.09 588.746 478.126 588.587 478.183C588.766 476.785 588.815 475.437 588.733 474.138C588.661 472.827 588.491 471.604 588.221 470.469C587.95 469.311 587.64 468.283 587.293 467.386ZM604.494 471.795L604.604 470.215C605.144 470.098 605.72 470.002 606.332 469.927C606.943 469.829 607.538 469.761 608.118 469.723C608.696 469.662 609.203 469.658 609.637 469.711L609.605 471.424C609.195 471.37 608.699 471.362 608.119 471.4C607.538 471.414 606.93 471.46 606.294 471.537C605.647 471.603 605.047 471.688 604.494 471.795ZM591.633 474.717L595.128 477.789L604.627 466.982L601.132 463.91L591.633 474.717ZM589.205 474.981L601.147 461.394L607.12 466.644L595.178 480.231L589.205 474.981ZM593.199 463.575L593.476 463.26L593.632 462.97L595.127 462.575C595.34 463.178 595.533 463.841 595.707 464.563C595.88 465.285 596.026 466.015 596.142 466.753C596.257 467.467 596.334 468.126 596.372 468.729C596.141 468.767 595.878 468.831 595.581 468.921C595.271 468.999 595.008 469.075 594.791 469.147C594.756 468.59 594.672 467.99 594.538 467.347C594.415 466.691 594.259 466.061 594.069 465.457C593.878 464.829 593.687 464.288 593.495 463.835L593.199 463.575ZM588.442 468.987L593.639 463.074L594.841 464.131L588.911 470.878L588.442 468.987ZM600.685 472.586L601.89 471.214L606.791 475.522C607.074 475.771 607.319 475.865 607.525 475.805C607.731 475.745 608.045 475.474 608.469 474.992C608.567 474.881 608.74 474.683 608.99 474.399C609.251 474.103 609.533 473.781 609.837 473.435C610.152 473.077 610.446 472.743 610.717 472.434C610.989 472.126 611.19 471.897 611.32 471.749C611.559 471.477 611.683 471.224 611.691 470.991C611.711 470.745 611.581 470.445 611.303 470.09C611.012 469.725 610.538 469.232 609.882 468.612C610.043 468.578 610.225 468.519 610.429 468.436C610.621 468.342 610.819 468.242 611.022 468.135C611.212 468.018 611.38 467.914 611.526 467.823C612.296 468.587 612.838 469.239 613.151 469.777C613.488 470.314 613.607 470.813 613.508 471.273C613.42 471.722 613.137 472.218 612.659 472.761C612.583 472.848 612.442 473.008 612.235 473.243C612.029 473.478 611.79 473.75 611.518 474.059C611.258 474.355 610.992 474.658 610.72 474.967C610.459 475.264 610.226 475.529 610.02 475.764C609.824 475.986 609.694 476.135 609.629 476.209C609.075 476.839 608.585 477.285 608.159 477.545C607.744 477.794 607.335 477.861 606.932 477.748C606.539 477.622 606.097 477.343 605.604 476.909L600.685 472.586Z" fill="#AF282F"/>
</svg>
