<svg width="1200" height="1200" viewBox="300 300 600 600" fill="none" xmlns="http://www.w3.org/2000/svg">
<!-- <rect width="1200" height="1200" fill="white"/> -->
<path d="M405 591.5C476.5 634 542.365 620.116 599.5 572C580 586 544.5 586.5 526.5 574.5C545.823 573.393 556.406 571.357 574 560.5C536 569 508 559 498 541C518.708 544.042 541 543 550 536.5C510.5 540.5 473.5 522.5 457 489C478.451 494.637 491.262 497.13 516 500C453 474 439 450.5 434 406C454.159 431.952 469.096 440.496 498 452C434 409.5 423.878 359.398 432.5 306C457 387.5 502.225 445.361 590 524.5L612.5 502.5C616 499.5 626 508.604 623.5 511C611.5 522.5 634 539 651.5 553C582.5 596.5 556 704 482 698.5C496.861 692.147 504.323 687.681 516 678C489 694 468.491 690.553 445 672C461.724 677.51 471.707 675.591 490.5 664C462.5 673.5 433 654.5 416 635C434.456 641.872 445.27 644.343 466.5 643C436 636.5 418.415 620.637 405 591.5Z" fill="black"/>
<path d="M718.5 498.5C692 600 644.007 635.477 570.5 650.5C609.5 659.5 668 652.256 706.5 597.5C729 565.5 724 491 795 474.5C778 475.5 760.5 442.5 727 442.5C695 442.5 693 476.5 684 480.5C692.941 478.332 697.864 476.561 706.5 472.5C702.536 479.421 692.159 492.074 691.5 492.5C699.948 487.502 704.701 484.758 713.5 481C708.45 496.043 703.347 503.486 692.5 516C703.129 508.029 708.998 503.778 718.5 498.5Z" fill="black"/>
<path d="M692.999 417.5C692.999 438.5 690 451 678.5 463C678.5 406.5 627 395 627 323C627 269.5 648.5 229.5 687 199C668 235.5 656.5 259.5 656.5 298C656.5 346 690.999 379 692.999 417.5Z" fill="black"/>
<path d="M671.499 451.5C675.499 412 586.999 387.5 623.999 271.5C608.734 300.392 600.01 316.426 603.499 364C600.414 353.337 599.239 347.334 599.999 336.5C589.499 355 589.999 377 599.999 396C633.835 412.696 652.644 422.192 671.499 451.5Z" fill="black"/>
<path d="M581 394C517 342 466 259.5 477.5 153C449 181 439.571 208.274 437.5 251.5C437.5 331.5 650.5 485.5 640 489.5C667.322 512.421 673.858 524.771 681.681 545.331C695.296 455.946 650.298 435.864 581 394Z" fill="black"/>
<path d="M346.96 882.4V817.12C346.96 805.12 345.68 800.16 340.08 791.2V790.88H378.96C410.8 790.88 420.24 806.08 420.24 823.36C420.24 845.28 404.88 860.48 376.72 860.48H360.4V882.4C360.4 894.08 361.68 898.88 367.28 907.68V908H340.08L340.24 907.68C345.84 898.88 346.96 893.92 346.96 882.4ZM376.56 796.8C372.24 796.8 367.76 796.8 360.4 797.12V854.56H376.24C397.68 854.56 406.16 841.76 406.16 824C406.16 801.92 392.72 796.8 376.56 796.8ZM449.384 910.4C437.224 910.4 429.224 903.52 429.224 892.8C429.224 872.96 455.784 863.68 475.464 861.12V850.88C475.464 839.84 472.104 833.44 458.504 833.44C449.224 833.44 440.584 836.64 434.504 841.12L432.584 839.04C439.624 830.72 450.504 824.8 464.104 824.8C482.824 824.8 488.104 835.68 488.104 847.84V893.28C488.104 897.92 490.024 901.28 494.984 901.28C498.664 901.28 501.224 899.36 503.784 896.32L505.864 897.76C503.304 903.2 498.664 910.08 489.384 910.08C480.584 910.08 476.104 904.16 475.784 897.6C470.184 904.32 460.744 910.4 449.384 910.4ZM441.384 889.6C441.384 896.8 446.344 901.6 455.304 901.6C464.264 901.6 471.944 896.48 475.464 891.52V866.24C458.824 869.12 441.384 876.32 441.384 889.6ZM517.576 908V907.68C520.776 901.6 521.736 895.68 521.736 884.16V803.2C521.736 795.2 518.056 790.56 514.056 787.52V787.04L534.376 779.04V884C534.376 895.52 535.176 901.76 538.696 907.68V908H517.576ZM596.624 910.4C573.104 910.4 553.584 891.04 553.744 867.68C553.904 844.32 573.424 824.8 596.624 824.8C620.144 824.8 639.824 844.32 639.824 867.68C639.824 891.04 620.304 910.4 596.624 910.4ZM596.624 904.48C615.504 904.48 625.744 887.68 625.744 867.68C625.744 847.68 615.344 830.72 596.624 830.72C578.064 830.72 567.824 847.68 567.824 867.68C567.824 887.68 577.904 904.48 596.624 904.48ZM656.33 908V907.68C659.85 899.68 660.65 892.48 660.65 879.84V850.08C660.65 841.44 656.97 836.48 652.97 833.12V832.8L672.49 823.84V839.68L673.29 839.84C681.13 829.28 690.25 824.8 700.33 824.8C711.69 824.8 717.61 830.4 719.53 839.68L720.33 839.84C728.33 829.28 737.45 824.8 747.53 824.8C761.93 824.8 767.53 833.92 767.53 848.48V879.68C767.53 892.64 767.85 899.68 771.69 907.68V908H750.73V907.68C754.41 899.68 755.05 891.84 755.05 879.84V851.36C755.05 841.92 752.49 834.24 741.77 834.24C734.89 834.24 726.89 837.28 720.33 846.4V879.68C720.33 892.64 720.65 899.68 724.65 907.68V908H703.53V907.68C707.21 899.68 707.69 891.84 707.69 879.84V851.36C707.69 841.92 705.29 834.24 694.41 834.24C687.69 834.24 679.53 837.28 673.29 846.4V879.68C673.29 892.32 673.45 899.68 677.45 907.68V908H656.33ZM808.134 910.4C795.974 910.4 787.974 903.52 787.974 892.8C787.974 872.96 814.534 863.68 834.214 861.12V850.88C834.214 839.84 830.854 833.44 817.254 833.44C807.974 833.44 799.334 836.64 793.254 841.12L791.334 839.04C798.374 830.72 809.254 824.8 822.854 824.8C841.574 824.8 846.854 835.68 846.854 847.84V893.28C846.854 897.92 848.774 901.28 853.734 901.28C857.414 901.28 859.974 899.36 862.534 896.32L864.614 897.76C862.054 903.2 857.414 910.08 848.134 910.08C839.334 910.08 834.854 904.16 834.534 897.6C828.934 904.32 819.494 910.4 808.134 910.4ZM800.134 889.6C800.134 896.8 805.094 901.6 814.054 901.6C823.014 901.6 830.694 896.48 834.214 891.52V866.24C817.574 869.12 800.134 876.32 800.134 889.6Z" fill="black"/>
<path d="M440.118 1024.81C436.369 1024.81 432.866 1024.15 429.61 1022.82C426.354 1021.43 423.493 1019.54 421.026 1017.12C418.559 1014.65 416.635 1011.81 415.254 1008.61C413.922 1005.35 413.256 1001.85 413.256 998.1C413.256 994.351 413.922 990.873 415.254 987.666C416.635 984.41 418.559 981.573 421.026 979.156C423.493 976.689 426.354 974.79 429.61 973.458C432.866 972.077 436.369 971.386 440.118 971.386C442.831 971.386 445.421 971.731 447.888 972.422C450.404 973.063 452.723 974.025 454.844 975.308C457.015 976.541 458.939 978.071 460.616 979.896L456.842 983.892C454.819 981.573 452.328 979.797 449.368 978.564C446.408 977.281 443.325 976.64 440.118 976.64C437.109 976.64 434.321 977.183 431.756 978.268C429.191 979.353 426.946 980.883 425.022 982.856C423.147 984.78 421.667 987.049 420.582 989.664C419.546 992.229 419.028 995.041 419.028 998.1C419.028 1001.11 419.546 1003.92 420.582 1006.54C421.667 1009.15 423.172 1011.44 425.096 1013.42C427.02 1015.34 429.265 1016.85 431.83 1017.93C434.445 1019.02 437.257 1019.56 440.266 1019.56C443.473 1019.56 446.531 1018.94 449.442 1017.71C452.353 1016.43 454.795 1014.68 456.768 1012.46L460.468 1016.3C458.741 1018.08 456.793 1019.61 454.622 1020.89C452.501 1022.17 450.207 1023.16 447.74 1023.85C445.273 1024.49 442.733 1024.81 440.118 1024.81ZM496.852 1024.81C492.462 1024.81 488.663 1023.9 485.456 1022.08C482.25 1020.2 479.783 1017.56 478.056 1014.16C476.33 1010.75 475.466 1006.73 475.466 1002.1V972.2H481.164V1002.1C481.164 1005.65 481.806 1008.73 483.088 1011.35C484.371 1013.96 486.196 1015.98 488.564 1017.41C490.932 1018.84 493.695 1019.56 496.852 1019.56C500.059 1019.56 502.822 1018.84 505.14 1017.41C507.508 1015.98 509.334 1013.96 510.616 1011.35C511.899 1008.73 512.54 1005.65 512.54 1002.1V972.2H518.238V1002.1C518.238 1006.73 517.35 1010.75 515.574 1014.16C513.848 1017.56 511.381 1020.2 508.174 1022.08C505.017 1023.9 501.243 1024.81 496.852 1024.81ZM550.288 1024V977.306H531.566V972.2H574.708V977.306H555.986V1024H550.288ZM589.078 1024V972.2H594.776V1018.89H625.634V1024H589.078ZM641.138 1024V972.2H678.212V977.232H646.836V995.362H667.334V1000.32H646.836V1018.97H678.508V1024H641.138ZM694.137 1024V972.2H716.337C719.741 972.2 722.701 972.817 725.217 974.05C727.733 975.283 729.682 977.01 731.063 979.23C732.494 981.45 733.209 984.065 733.209 987.074C733.209 990.478 732.198 993.413 730.175 995.88C728.202 998.297 725.538 999.999 722.183 1000.99L733.801 1024H727.511L716.411 1001.73H699.835V1024H694.137ZM699.835 996.916H715.967C719.47 996.916 722.257 996.028 724.329 994.252C726.451 992.476 727.511 990.083 727.511 987.074C727.511 984.114 726.451 981.746 724.329 979.97C722.257 978.194 719.47 977.306 715.967 977.306H699.835V996.916ZM761.727 1024V1002.91L741.155 972.2H747.815L764.761 997.878L781.633 972.2H788.071L767.425 1003.13V1024H761.727Z" fill="black"/>
<path d="M562.666 448.105L571.154 438.448L572.504 439.634L564.016 449.291L562.666 448.105ZM567.122 452.022L575.692 442.272L577.005 443.426L568.435 453.176L567.122 452.022ZM571.449 456.087L580.067 446.282L581.417 447.469L572.799 457.274L571.449 456.087ZM561.9 448.976L563.138 447.567L568.834 452.573C569.635 453.278 570.454 454.074 571.29 454.962C572.137 455.838 572.921 456.812 573.64 457.883C574.348 458.942 574.916 460.099 575.344 461.352C575.783 462.592 575.995 463.917 575.98 465.327C575.827 465.302 575.623 465.298 575.368 465.315C575.123 465.319 574.88 465.335 574.637 465.363C574.407 465.401 574.212 465.449 574.052 465.506C574.049 464.167 573.856 462.945 573.471 461.841C573.086 460.714 572.572 459.682 571.931 458.746C571.301 457.797 570.606 456.935 569.846 456.158C569.086 455.357 568.335 454.632 567.596 453.982L561.9 448.976ZM570.617 439.059L571.904 437.595L585.884 449.883C586.377 450.317 586.688 450.721 586.816 451.097C586.945 451.473 586.918 451.888 586.738 452.342C586.546 452.809 586.18 453.375 585.64 454.039C585.112 454.714 584.414 455.546 583.545 456.534C583.375 456.429 583.171 456.338 582.934 456.26C582.707 456.17 582.463 456.087 582.202 456.011C581.964 455.933 581.751 455.878 581.562 455.843C582.031 455.335 582.478 454.852 582.903 454.393C583.326 453.911 583.69 453.497 583.994 453.151C584.297 452.782 584.508 452.529 584.628 452.393C584.811 452.16 584.898 451.974 584.889 451.835C584.879 451.672 584.775 451.505 584.578 451.331L570.617 439.059Z" fill="black"/>
<path d="M595.075 469.495L596.346 468.05C597.341 469.056 598.261 470.061 599.104 471.065C599.948 472.069 600.661 473.123 601.243 474.226C601.825 475.329 602.214 476.515 602.41 477.783C602.618 479.038 602.577 480.415 602.287 481.913C602.009 483.398 601.42 485.038 600.52 486.832C600.282 486.755 599.976 486.693 599.6 486.648C599.248 486.601 598.933 486.587 598.655 486.605C599.537 484.906 600.121 483.371 600.407 482.001C600.691 480.609 600.751 479.347 600.587 478.217C600.421 477.063 600.068 475.997 599.529 475.02C599.001 474.03 598.353 473.088 597.586 472.195C596.807 471.291 595.97 470.391 595.075 469.495ZM587.293 467.386L588.873 466.147C589.279 467.226 589.628 468.409 589.919 469.694C590.208 470.956 590.409 472.293 590.522 473.707C590.622 475.109 590.591 476.561 590.43 478.062C590.277 478.037 590.085 478.032 589.853 478.047C589.62 478.039 589.393 478.048 589.173 478.074C588.942 478.09 588.746 478.126 588.587 478.183C588.766 476.785 588.815 475.437 588.733 474.138C588.661 472.827 588.491 471.604 588.221 470.469C587.95 469.311 587.64 468.283 587.293 467.386ZM604.494 471.795L604.604 470.215C605.144 470.098 605.72 470.002 606.332 469.927C606.943 469.829 607.538 469.761 608.118 469.723C608.696 469.662 609.203 469.658 609.637 469.711L609.605 471.424C609.195 471.37 608.699 471.362 608.119 471.4C607.538 471.414 606.93 471.46 606.294 471.537C605.647 471.603 605.047 471.688 604.494 471.795ZM591.633 474.717L595.128 477.789L604.627 466.982L601.132 463.91L591.633 474.717ZM589.205 474.981L601.147 461.394L607.12 466.644L595.178 480.231L589.205 474.981ZM593.199 463.575L593.476 463.26L593.632 462.97L595.127 462.575C595.34 463.178 595.533 463.841 595.707 464.563C595.88 465.285 596.026 466.015 596.142 466.753C596.257 467.467 596.334 468.126 596.372 468.729C596.141 468.767 595.878 468.831 595.581 468.921C595.271 468.999 595.008 469.075 594.791 469.147C594.756 468.59 594.672 467.99 594.538 467.347C594.415 466.691 594.259 466.061 594.069 465.457C593.878 464.829 593.687 464.288 593.495 463.835L593.199 463.575ZM588.442 468.987L593.639 463.074L594.841 464.131L588.911 470.878L588.442 468.987ZM600.685 472.586L601.89 471.214L606.791 475.522C607.074 475.771 607.319 475.865 607.525 475.805C607.731 475.745 608.045 475.474 608.469 474.992C608.567 474.881 608.74 474.683 608.99 474.399C609.251 474.103 609.533 473.781 609.837 473.435C610.152 473.077 610.446 472.743 610.717 472.434C610.989 472.126 611.19 471.897 611.32 471.749C611.559 471.477 611.683 471.224 611.691 470.991C611.711 470.745 611.581 470.445 611.303 470.09C611.012 469.725 610.538 469.232 609.882 468.612C610.043 468.578 610.225 468.519 610.429 468.436C610.621 468.342 610.819 468.242 611.022 468.135C611.212 468.018 611.38 467.914 611.526 467.823C612.296 468.587 612.838 469.239 613.151 469.777C613.488 470.314 613.607 470.813 613.508 471.273C613.42 471.722 613.137 472.218 612.659 472.761C612.583 472.848 612.442 473.008 612.235 473.243C612.029 473.478 611.79 473.75 611.518 474.059C611.258 474.355 610.992 474.658 610.72 474.967C610.459 475.264 610.226 475.529 610.02 475.764C609.824 475.986 609.694 476.135 609.629 476.209C609.075 476.839 608.585 477.285 608.159 477.545C607.744 477.794 607.335 477.861 606.932 477.748C606.539 477.622 606.097 477.343 605.604 476.909L600.685 472.586Z" fill="black"/>
</svg>
